STARTFONT 2.3
FONT -FontForge-Fontdiner Swanky-Book-R-Normal--10-100-72-72-P-63-ISO10646-1
SIZE 10 72 72  4
FONTBOUNDINGBOX 15 16 -3 -5
COMMENT "Generated by fontforge, http://fontforge.sourceforge.net"
COMMENT "Copyright (c) 2010 by Font Diner, Inc. All rights reserved."
STARTPROPERTIES 40
FOUNDRY "FontForge"
FAMILY_NAME "Fontdiner Swanky"
WEIGHT_NAME "Book"
SLANT "R"
SETWIDTH_NAME "Normal"
ADD_STYLE_NAME ""
PIXEL_SIZE 10
POINT_SIZE 100
RESOLUTION_X 72
RESOLUTION_Y 72
SPACING "P"
AVERAGE_WIDTH 63
CHARSET_REGISTRY "ISO10646"
CHARSET_ENCODING "1"
FONTNAME_REGISTRY ""
CHARSET_COLLECTIONS "ISO10646-1"
BITS_PER_PIXEL 4
FONT_NAME "FontdinerSwanky-Regular"
FACE_NAME "Fontdiner Swanky Regular"
COPYRIGHT "Copyright (c) 2010 by Font Diner, Inc. All rights reserved."
FONT_VERSION "1.001"
FONT_ASCENT 8
FONT_DESCENT 2
UNDERLINE_POSITION -1
UNDERLINE_THICKNESS 1
X_HEIGHT 5
CAP_HEIGHT 6
RAW_ASCENT 799
RAW_DESCENT 200
NORM_SPACE 3
RELATIVE_WEIGHT 40
RELATIVE_SETWIDTH 50
SUPERSCRIPT_X 0
SUPERSCRIPT_Y 4
SUPERSCRIPT_SIZE 6
SUBSCRIPT_X 0
SUBSCRIPT_Y 1
SUBSCRIPT_SIZE 6
AVG_LOWERCASE_WIDTH 63
AVG_UPPERCASE_WIDTH 76
ENDPROPERTIES
CHARS 231
STARTCHAR space
ENCODING 32
SWIDTH 320 0
DWIDTH 3 0
BBX 1 1 0 0
BITMAP
00
ENDCHAR
STARTCHAR exclam
ENCODING 33
SWIDTH 305 0
DWIDTH 3 0
BBX 3 10 0 -1
BITMAP
0650
1FE0
2FB0
2F80
3F50
4F30
4F00
4600
CE00
0100
ENDCHAR
STARTCHAR quotedbl
ENCODING 34
SWIDTH 369 0
DWIDTH 4 0
BBX 4 3 0 4
BITMAP
8695
C9D7
B7C6
ENDCHAR
STARTCHAR numbersign
ENCODING 35
SWIDTH 702 0
DWIDTH 7 0
BBX 7 7 0 0
BITMAP
03B06700
5AE7BB50
8DEBEC80
07A0C600
ADECFD80
4BA6F830
0741A200
ENDCHAR
STARTCHAR dollar
ENCODING 36
SWIDTH 545 0
DWIDTH 5 0
BBX 6 10 0 -2
BITMAP
014100
02F100
4DDB80
CA04D0
9FD740
36CFD2
B706F4
9AED90
10E500
003100
ENDCHAR
STARTCHAR percent
ENCODING 37
SWIDTH 657 0
DWIDTH 7 0
BBX 7 9 0 -1
BITMAP
14108500
BAE2F600
B9E7E000
152D7000
004F1000
00A96920
02F5E7B0
07B1CC70
03300100
ENDCHAR
STARTCHAR ampersand
ENCODING 38
SWIDTH 668 0
DWIDTH 7 0
BBX 8 9 0 -1
BITMAP
02650000
1E6A9000
2F57A000
09EC2000
09ED1600
7E2EBD50
AF47FB74
3DFBBE50
00018100
ENDCHAR
STARTCHAR quotesingle
ENCODING 39
SWIDTH 177 0
DWIDTH 2 0
BBX 2 3 0 4
BITMAP
97
C9
A7
ENDCHAR
STARTCHAR parenleft
ENCODING 40
SWIDTH 384 0
DWIDTH 4 0
BBX 4 11 0 -2
BITMAP
0002
02C3
0C80
4F30
6F00
7F00
6F10
3F50
0BB0
01C4
0003
ENDCHAR
STARTCHAR parenright
ENCODING 41
SWIDTH 375 0
DWIDTH 4 0
BBX 4 11 0 -2
BITMAP
2000
5B10
0BA0
05F2
03F4
02F5
04F3
07F1
0D90
6A00
3000
ENDCHAR
STARTCHAR asterisk
ENCODING 42
SWIDTH 640 0
DWIDTH 6 0
BBX 7 7 0 0
BITMAP
02211000
0D97E300
24EDB000
DFFFDE50
87FF9620
0ACAE200
07445000
ENDCHAR
STARTCHAR plus
ENCODING 43
SWIDTH 607 0
DWIDTH 6 0
BBX 6 7 0 0
BITMAP
003300
00BC00
33CC10
DFFFFE
55CC43
00AA00
006600
ENDCHAR
STARTCHAR comma
ENCODING 44
SWIDTH 226 0
DWIDTH 2 0
BBX 3 3 0 -2
BITMAP
7900
AF10
3800
ENDCHAR
STARTCHAR hyphen
ENCODING 45
SWIDTH 549 0
DWIDTH 6 0
BBX 5 3 0 2
BITMAP
254320
6FFFD0
265530
ENDCHAR
STARTCHAR period
ENCODING 46
SWIDTH 226 0
DWIDTH 2 0
BBX 3 2 0 -1
BITMAP
8B10
9C10
ENDCHAR
STARTCHAR slash
ENCODING 47
SWIDTH 600 0
DWIDTH 6 0
BBX 8 10 -1 -1
BITMAP
00000560
00001EE2
00008F70
0002FC00
000AF300
004F9000
00CE1000
06F50000
1EB00000
07200000
ENDCHAR
STARTCHAR zero
ENCODING 48
SWIDTH 740 0
DWIDTH 7 0
BBX 8 7 0 0
BITMAP
00243000
0AFBDD30
8F501DD0
BE0008F2
BE0009F2
4F814E90
04CED700
ENDCHAR
STARTCHAR one
ENCODING 49
SWIDTH 503 0
DWIDTH 5 0
BBX 7 9 -1 -1
BITMAP
00012000
28CFA000
003FA000
001F9000
001F9000
000F8000
000E8000
017FC400
04444410
ENDCHAR
STARTCHAR two
ENCODING 50
SWIDTH 638 0
DWIDTH 6 0
BBX 6 9 0 -1
BITMAP
400200
89EEE5
6E209E
46009E
2118E7
05E927
6F502D
EFFFFD
223444
ENDCHAR
STARTCHAR three
ENCODING 51
SWIDTH 620 0
DWIDTH 6 0
BBX 7 9 -1 -1
BITMAP
02000000
098EEA10
08B23EA0
04100DB0
000BDF50
03036FC0
08500EE0
0BDBCF60
14156200
ENDCHAR
STARTCHAR four
ENCODING 52
SWIDTH 606 0
DWIDTH 6 0
BBX 7 9 -1 -1
BITMAP
00000300
00006900
0004F900
002EF800
01D6F850
0BD7FCB0
2555E9A0
0000E730
0039AA40
ENDCHAR
STARTCHAR five
ENCODING 53
SWIDTH 610 0
DWIDTH 6 0
BBX 6 9 0 -1
BITMAP
000133
9CEFF9
CB3127
9DA952
796BF6
1000FB
8504F9
ACFFD2
103410
ENDCHAR
STARTCHAR six
ENCODING 54
SWIDTH 619 0
DWIDTH 6 0
BBX 7 9 0 -1
BITMAP
00002400
05DDA600
3FB6B800
9F885400
DF96EA00
FC007F10
DC007F10
6F64DA00
049A6000
ENDCHAR
STARTCHAR seven
ENCODING 55
SWIDTH 598 0
DWIDTH 6 0
BBX 7 9 0 -1
BITMAP
21100000
CFFFEE50
7913FE10
3504F900
0008F200
000CB000
001F5000
029F5000
05677500
ENDCHAR
STARTCHAR eight
ENCODING 56
SWIDTH 642 0
DWIDTH 6 0
BBX 7 8 0 -1
BITMAP
08EDC300
5F40CD00
7F20AE00
2FC9F900
9F96EE20
EE007F70
BF41BF30
18CDB400
ENDCHAR
STARTCHAR nine
ENCODING 57
SWIDTH 610 0
DWIDTH 6 0
BBX 6 9 0 -1
BITMAP
001100
2CDDB1
BD10DA
EB00AE
BE33EF
2BFEED
5503F8
4FDED1
264510
ENDCHAR
STARTCHAR colon
ENCODING 58
SWIDTH 223 0
DWIDTH 2 0
BBX 2 5 0 -1
BITMAP
33
EF
23
9A
AB
ENDCHAR
STARTCHAR semicolon
ENCODING 59
SWIDTH 228 0
DWIDTH 2 0
BBX 2 6 0 -2
BITMAP
33
DF
23
88
CF
57
ENDCHAR
STARTCHAR less
ENCODING 60
SWIDTH 563 0
DWIDTH 6 0
BBX 6 7 0 0
BITMAP
000014
0006EC
04CFD6
8FE600
19E500
003C80
000076
ENDCHAR
STARTCHAR equal
ENCODING 61
SWIDTH 531 0
DWIDTH 5 0
BBX 6 5 0 0
BITMAP
998771
FFFEE2
667772
EFFFF3
001120
ENDCHAR
STARTCHAR greater
ENCODING 62
SWIDTH 576 0
DWIDTH 6 0
BBX 6 7 0 0
BITMAP
410000
CE6000
6DFC30
007EF8
006E81
09C300
770000
ENDCHAR
STARTCHAR question
ENCODING 63
SWIDTH 592 0
DWIDTH 6 0
BBX 6 10 0 -1
BITMAP
300000
8CCC70
8104F8
1000CD
0325F9
0BFB81
0CA000
262000
BF5000
140000
ENDCHAR
STARTCHAR at
ENCODING 64
SWIDTH 792 0
DWIDTH 8 0
BBX 9 8 0 -1
BITMAP
0069A81000
1DA556D300
AA6B8A6D00
E5574E2F20
E5AA8D2F20
AB8CBC5C00
1BA32BA200
0035510000
ENDCHAR
STARTCHAR A
ENCODING 65
SWIDTH 788 0
DWIDTH 8 0
BBX 12 10 -2 -3
BITMAP
000699500000
00004EE00000
00003EF60000
0000A4DD0000
0003E7BF6000
000B987ED000
018C0009F600
17898102FD72
00000009C851
000000110000
ENDCHAR
STARTCHAR B
ENCODING 66
SWIDTH 774 0
DWIDTH 8 0
BBX 9 9 -1 -2
BITMAP
5999875100
04FD67CE40
00EC000EA0
00DE78CE30
00CFACF800
00AF008F50
009F36DE30
18EDB96100
2100000000
ENDCHAR
STARTCHAR C
ENCODING 67
SWIDTH 766 0
DWIDTH 8 0
BBX 8 9 0 -1
BITMAP
00000001
018BC946
1DE748F4
9F600091
CF200010
BF300010
5F900080
08FB7AD3
00378502
ENDCHAR
STARTCHAR D
ENCODING 68
SWIDTH 833 0
DWIDTH 8 0
BBX 10 8 -1 -1
BITMAP
49AAAA8300
018FB58F70
004F9009F2
003F8006F5
002F7007F3
001F601CC0
019FDCEA20
0443210000
ENDCHAR
STARTCHAR E
ENCODING 69
SWIDTH 781 0
DWIDTH 8 0
BBX 9 9 -1 -1
BITMAP
0000001210
39CDDCBE60
008F501850
007F553240
006FAD3010
006FAD3320
005F442920
03BFB9AE20
1333333300
ENDCHAR
STARTCHAR F
ENCODING 70
SWIDTH 731 0
DWIDTH 7 0
BBX 8 9 -1 -1
BITMAP
00000012
28BCDDCF
009F400D
008F4618
007FAE02
007F9E00
006F3700
008F5000
16888500
ENDCHAR
STARTCHAR G
ENCODING 71
SWIDTH 828 0
DWIDTH 8 0
BBX 9 9 0 -1
BITMAP
0000000200
018CDAB500
1DE638F400
9F60007300
CF31566640
BF4017F800
5FA004F700
08FC9DA800
0026520100
ENDCHAR
STARTCHAR H
ENCODING 72
SWIDTH 797 0
DWIDTH 8 0
BBX 10 8 -1 -1
BITMAP
333359EF92
17FD40CF00
00FB00BE00
00FB33CE00
00FEBADD00
00EA00AD00
00EA16DE82
28CC720000
ENDCHAR
STARTCHAR I
ENCODING 73
SWIDTH 445 0
DWIDTH 4 0
BBX 6 8 -1 -1
BITMAP
29DDB5
008F40
007F30
007F30
006F20
006F20
005F20
16CDA5
ENDCHAR
STARTCHAR J
ENCODING 74
SWIDTH 718 0
DWIDTH 7 0
BBX 9 10 -1 -2
BITMAP
0000000240
0037ADF810
00001BF000
000008F200
000006F400
000004F600
5BC604F500
04E108F100
00ACAE6000
0002310000
ENDCHAR
STARTCHAR K
ENCODING 75
SWIDTH 934 0
DWIDTH 9 0
BBX 12 9 -1 -1
BITMAP
123444100000
05CF915ABA50
008F405D7100
007F6BC20000
007FCAD10000
006F31DC0000
005F303FA000
05CFC617F700
0111114ACCA4
ENDCHAR
STARTCHAR L
ENCODING 76
SWIDTH 712 0
DWIDTH 7 0
BBX 9 8 -1 0
BITMAP
28CDC71000
007F700000
006F600000
005F600000
005F600510
004F500B10
004F734F10
17CCBBA900
ENDCHAR
STARTCHAR M
ENCODING 77
SWIDTH 1033 0
DWIDTH 10 0
BBX 12 9 -1 -1
BITMAP
111100002332
17DFA001EF82
008FF308FF10
007EFA2EEF00
006ABFC7DE00
004B3FE1DE00
003B0980DD00
028E6327EE83
144444100001
ENDCHAR
STARTCHAR N
ENCODING 78
SWIDTH 840 0
DWIDTH 8 0
BBX 11 9 -1 -1
BITMAP
111103334410
18EFA28EB300
007FF7095000
007AEF495000
00784FEB5000
007806FF4000
007A008F4000
3AEEC71A4000
000000001000
ENDCHAR
STARTCHAR O
ENCODING 79
SWIDTH 808 0
DWIDTH 8 0
BBX 8 8 0 -1
BITMAP
00012000
06DEDE70
6F9008F7
BF2001FD
BF2001FC
5F9008F5
05DEED50
00011000
ENDCHAR
STARTCHAR P
ENCODING 80
SWIDTH 746 0
DWIDTH 7 0
BBX 9 8 -1 -1
BITMAP
3655541000
03CF9ADC20
009F100E70
008F89C910
008F720000
008F400000
04DFA30000
1544441000
ENDCHAR
STARTCHAR Q
ENCODING 81
SWIDTH 789 0
DWIDTH 8 0
BBX 9 10 0 -3
BITMAP
0036630000
0BF99FA000
7F6007F600
AF2002F900
8F3005F700
1DC44DD100
018BFB1000
0000CD3100
0001CFD930
0018730000
ENDCHAR
STARTCHAR R
ENCODING 82
SWIDTH 826 0
DWIDTH 8 0
BBX 12 10 -1 -3
BITMAP
266654200000
02BF99CD3000
007F200C9000
007FAAD81000
007F76F40000
006F50CD1000
04CFC44FA000
1443331BFD93
0000002C8200
000000300000
ENDCHAR
STARTCHAR S
ENCODING 83
SWIDTH 661 0
DWIDTH 7 0
BBX 7 8 0 -1
BITMAP
04774240
8E65BF40
DE510820
7FFFB400
127BFF40
55007F70
6CB9DB10
40242000
ENDCHAR
STARTCHAR T
ENCODING 84
SWIDTH 754 0
DWIDTH 8 0
BBX 8 8 0 -1
BITMAP
6BAAAAA1
785FA3E0
622F9090
202F8020
002F8000
001F7000
03BFD600
02222310
ENDCHAR
STARTCHAR U
ENCODING 85
SWIDTH 725 0
DWIDTH 7 0
BBX 9 8 -1 -1
BITMAP
2543238850
05FC207B00
03FA005A00
03F9005900
03F9004900
01FD008600
007FDCB000
0001320000
ENDCHAR
STARTCHAR V
ENCODING 86
SWIDTH 786 0
DWIDTH 8 0
BBX 10 9 -1 -1
BITMAP
0000100000
259B516531
36FB001E84
00AF304A00
003F90C200
000BF69000
0003FE2000
0000B80000
0000310000
ENDCHAR
STARTCHAR W
ENCODING 87
SWIDTH 1026 0
DWIDTH 10 0
BBX 13 8 -1 -1
BITMAP
24566101542000
39FC10801AD720
00EE05F4095000
007F4BFC1D0000
001FDFAFB80000
000AF91EF20000
0003F208B00000
00007002500000
ENDCHAR
STARTCHAR X
ENCODING 88
SWIDTH 860 0
DWIDTH 9 0
BBX 11 8 -1 -1
BITMAP
000012000000
15BFB27AA400
001CE3B91000
0002EF800000
0003DFB00000
005D38F90000
3AEB20DF8200
000005765510
ENDCHAR
STARTCHAR Y
ENCODING 89
SWIDTH 848 0
DWIDTH 8 0
BBX 10 8 -1 -1
BITMAP
4567500000
16DF306CB5
002ED14A10
0003ECB100
00006F2000
00005F3000
00006F5000
0005AAA720
ENDCHAR
STARTCHAR Z
ENCODING 90
SWIDTH 685 0
DWIDTH 7 0
BBX 7 7 0 0
BITMAP
00001120
AEEDFFB0
7504FD10
333EE310
02DF5070
0CFA15A0
7CCCCD70
ENDCHAR
STARTCHAR bracketleft
ENCODING 91
SWIDTH 380 0
DWIDTH 4 0
BBX 5 11 0 -2
BITMAP
132210
6FD600
5F3000
5F3000
5F3000
4F3000
4F2000
3F2000
3F2000
2FA200
033300
ENDCHAR
STARTCHAR backslash
ENCODING 92
SWIDTH 680 0
DWIDTH 7 0
BBX 7 10 0 -1
BITMAP
29000000
AF600000
2EE10000
07F80000
00CF2000
003FA000
0009F400
0001EC00
00005F60
00000820
ENDCHAR
STARTCHAR bracketright
ENCODING 93
SWIDTH 371 0
DWIDTH 4 0
BBX 5 11 -1 -2
BITMAP
122310
06DF40
005F40
004F30
004F30
004F30
004F20
003F20
003F10
03BF10
033300
ENDCHAR
STARTCHAR asciicircum
ENCODING 94
SWIDTH 671 0
DWIDTH 7 0
BBX 7 7 0 2
BITMAP
00160000
009E2000
03FFB000
0CF4D600
6FA03D10
CF200560
01000000
ENDCHAR
STARTCHAR underscore
ENCODING 95
SWIDTH 840 0
DWIDTH 8 0
BBX 9 3 0 -2
BITMAP
AABBBBBC40
EFFFFFFF60
0000001100
ENDCHAR
STARTCHAR grave
ENCODING 96
SWIDTH 707 0
DWIDTH 7 0
BBX 2 4 3 5
BITMAP
11
D8
6C
01
ENDCHAR
STARTCHAR a
ENCODING 97
SWIDTH 572 0
DWIDTH 6 0
BBX 6 7 0 -1
BITMAP
038720
4E49D1
5B03F3
5DABF3
BD17F1
39BDF5
000232
ENDCHAR
STARTCHAR b
ENCODING 98
SWIDTH 723 0
DWIDTH 7 0
BBX 9 10 -1 -2
BITMAP
1356000000
5AFD000000
00ED000000
00DC000000
00CB000000
00CECED600
00BA00CF10
00B900BE00
02DC9CC300
0665420000
ENDCHAR
STARTCHAR c
ENCODING 99
SWIDTH 589 0
DWIDTH 6 0
BBX 6 6 0 -1
BITMAP
05CDA1
4F60F9
9F0053
9F2004
2ED8B6
027840
ENDCHAR
STARTCHAR d
ENCODING 100
SWIDTH 713 0
DWIDTH 7 0
BBX 8 10 0 -2
BITMAP
00039BA0
00000CE0
00000DC0
00000EA0
05CDAF90
4F714F70
8F001F50
5F502F30
05BCDF40
00002863
ENDCHAR
STARTCHAR e
ENCODING 101
SWIDTH 593 0
DWIDTH 6 0
BBX 6 6 0 -1
BITMAP
027840
2E98F4
9F54CB
9F9886
3F9572
028830
ENDCHAR
STARTCHAR f
ENCODING 102
SWIDTH 507 0
DWIDTH 5 0
BBX 7 14 -1 -4
BITMAP
00038600
002E6C60
007E0B80
009D0000
008E0000
0BEFDC00
005F3000
003F5000
001F7000
000E9000
000CA000
370BA000
6E0D7000
1ADA1000
ENDCHAR
STARTCHAR g
ENCODING 103
SWIDTH 606 0
DWIDTH 6 0
BBX 7 12 0 -5
BITMAP
00001300
0001DF70
09CCC830
7E10D900
BB00BB00
7E11E700
1DDC8000
5FC97100
5E87DD10
E9003F50
CC006F30
2ADCC500
ENDCHAR
STARTCHAR h
ENCODING 104
SWIDTH 678 0
DWIDTH 7 0
BBX 9 10 -1 -1
BITMAP
1367000000
48FC000000
00FC000000
00EB000000
00DA000000
00DECD9100
00C902F700
00C800F600
05ED31F400
0110179920
ENDCHAR
STARTCHAR i
ENCODING 105
SWIDTH 393 0
DWIDTH 4 0
BBX 5 8 0 0
BITMAP
07D200
09F300
334100
3BF300
06F200
05F100
05F000
4DF910
ENDCHAR
STARTCHAR j
ENCODING 106
SWIDTH 385 0
DWIDTH 4 0
BBX 5 12 -1 -4
BITMAP
004100
05F900
02A400
07AB00
009F10
005F30
004F40
002F60
000F70
9A0E60
6C7E20
035200
ENDCHAR
STARTCHAR k
ENCODING 107
SWIDTH 749 0
DWIDTH 7 0
BBX 10 9 -1 -1
BITMAP
48EE000000
00ED266650
00DD07E710
00CD5C3000
00BEED0000
00AD2E7000
009B05E200
06EE82BB41
110004A741
ENDCHAR
STARTCHAR l
ENCODING 108
SWIDTH 369 0
DWIDTH 4 0
BBX 5 10 -1 -1
BITMAP
488800
02ED00
00DD00
00CC00
00CC00
00BB00
00AB00
00AA00
00AB00
07BA70
ENDCHAR
STARTCHAR m
ENCODING 109
SWIDTH 990 0
DWIDTH 10 0
BBX 12 6 -1 0
BITMAP
014524103100
49EFDEDEEE20
00BC04F41F50
009903F10F50
04BB34F16D92
000036650000
ENDCHAR
STARTCHAR n
ENCODING 110
SWIDTH 643 0
DWIDTH 6 0
BBX 8 6 -1 0
BITMAP
01452410
49EFDED0
00BC04F2
009903F2
04BB34F1
00003665
ENDCHAR
STARTCHAR o
ENCODING 111
SWIDTH 705 0
DWIDTH 7 0
BBX 7 6 0 -1
BITMAP
05ABA500
8F614F80
DB000BE0
AE101DB0
19DBD910
00010000
ENDCHAR
STARTCHAR p
ENCODING 112
SWIDTH 723 0
DWIDTH 7 0
BBX 9 9 -1 -3
BITMAP
3576000000
27EEBC8100
00DD12BD00
00CC006F10
00BD33CC00
00AEAB8100
009C000000
02BE500000
2665420000
ENDCHAR
STARTCHAR q
ENCODING 113
SWIDTH 682 0
DWIDTH 7 0
BBX 8 9 0 -3
BITMAP
00005995
1AECEF30
BC109F10
DA009F00
6F76CE00
0487BD00
00009C00
0017EE61
00011232
ENDCHAR
STARTCHAR r
ENCODING 114
SWIDTH 595 0
DWIDTH 6 0
BBX 8 7 -1 -1
BITMAP
269D7AA1
03AFBAF2
006F2010
005F2000
003F3000
05DDB710
01000000
ENDCHAR
STARTCHAR s
ENCODING 115
SWIDTH 533 0
DWIDTH 5 0
BBX 6 7 0 -1
BITMAP
2AC960
AA15E0
8FB640
27DFD1
9706F4
9ADD90
100000
ENDCHAR
STARTCHAR t
ENCODING 116
SWIDTH 422 0
DWIDTH 4 0
BBX 6 10 -1 -1
BITMAP
001C00
006B00
1AFC62
05FB84
02F600
03F500
04F301
05F342
01EEC0
001410
ENDCHAR
STARTCHAR u
ENCODING 117
SWIDTH 614 0
DWIDTH 6 0
BBX 8 6 -1 -1
BITMAP
4CE36BB0
06F209C0
06F10AA0
04F20C80
00BEDEA3
00011441
ENDCHAR
STARTCHAR v
ENCODING 118
SWIDTH 639 0
DWIDTH 6 0
BBX 9 7 -1 -1
BITMAP
0035200000
5CF6498710
02E908A100
007F2D1000
001DD80000
0005F10000
0000500000
ENDCHAR
STARTCHAR w
ENCODING 119
SWIDTH 805 0
DWIDTH 8 0
BBX 11 6 -1 0
BITMAP
567721265410
19F51B08B200
01EC6F4D2000
007FDDDB0000
001E96F40000
000720A00000
ENDCHAR
STARTCHAR x
ENCODING 120
SWIDTH 717 0
DWIDTH 7 0
BBX 9 7 -1 -1
BITMAP
0246510000
36DE39C930
003ECC5000
0006F90000
005D8F6000
16894AF940
0000353100
ENDCHAR
STARTCHAR y
ENCODING 121
SWIDTH 655 0
DWIDTH 7 0
BBX 8 11 -1 -5
BITMAP
21000000
0AB57CA2
05F708F3
09F307F2
07F83AF2
018CBCF1
000008F0
012009E0
08D00DB0
04D7AE30
00276200
ENDCHAR
STARTCHAR z
ENCODING 122
SWIDTH 549 0
DWIDTH 6 0
BBX 6 7 0 -1
BITMAP
122333
BCBEF5
834F90
32ED12
1CF374
8EEDE5
000121
ENDCHAR
STARTCHAR braceleft
ENCODING 123
SWIDTH 708 0
DWIDTH 7 0
BBX 5 11 1 -2
BITMAP
023220
08FC50
07F100
07F100
07F100
8EF000
06F000
05F000
05F000
04F920
013330
ENDCHAR
STARTCHAR bar
ENCODING 124
SWIDTH 304 0
DWIDTH 3 0
BBX 3 10 0 -1
BITMAP
1520
4F50
4F50
4F50
4F40
4F40
3F40
3F40
3F40
2B20
ENDCHAR
STARTCHAR braceright
ENCODING 125
SWIDTH 517 0
DWIDTH 5 0
BBX 6 11 0 -2
BITMAP
223200
3AFC00
00CC00
00CB00
00CB00
00BFA2
00BA00
00B900
00B900
17E900
233200
ENDCHAR
STARTCHAR asciitilde
ENCODING 126
SWIDTH 466 0
DWIDTH 5 0
BBX 5 2 0 2
BITMAP
DFCAA0
959B60
ENDCHAR
STARTCHAR uni00A0
ENCODING 160
SWIDTH 320 0
DWIDTH 3 0
BBX 1 1 0 0
BITMAP
00
ENDCHAR
STARTCHAR exclamdown
ENCODING 161
SWIDTH 305 0
DWIDTH 3 0
BBX 3 10 0 -4
BITMAP
0450
0BE0
0630
0D60
1F60
4F50
7F40
AF40
CF30
0100
ENDCHAR
STARTCHAR cent
ENCODING 162
SWIDTH 417 0
DWIDTH 4 0
BBX 6 9 -1 -1
BITMAP
001200
006E00
019E40
0A81F1
1F3040
0F4012
08D8A0
007E10
006E00
ENDCHAR
STARTCHAR sterling
ENCODING 163
SWIDTH 658 0
DWIDTH 7 0
BBX 7 8 0 -1
BITMAP
00585250
08E7BF40
4EB32B20
DEFC8310
8AF97040
6AE86280
0CECCE80
14455630
ENDCHAR
STARTCHAR currency
ENCODING 164
SWIDTH 358 0
DWIDTH 4 0
BBX 4 5 0 1
BITMAP
2020
BEE5
68C2
BAC5
1000
ENDCHAR
STARTCHAR yen
ENCODING 165
SWIDTH 796 0
DWIDTH 8 0
BBX 9 7 -1 0
BITMAP
3566000000
16E804DB50
004E659000
0016F90000
004AEC7000
0038EC7000
0038DB6200
ENDCHAR
STARTCHAR brokenbar
ENCODING 166
SWIDTH 304 0
DWIDTH 3 0
BBX 3 10 0 -1
BITMAP
1520
4F50
4F50
4F50
1310
0000
3F40
3F40
3F30
2B20
ENDCHAR
STARTCHAR section
ENCODING 167
SWIDTH 646 0
DWIDTH 6 0
BBX 7 12 0 -3
BITMAP
05BA2300
5D35C900
8E201800
3EFB4000
1DDFF800
8C03CF10
7F93AD00
0BFFF400
204AFD00
69008F00
7BDAD800
20131000
ENDCHAR
STARTCHAR dieresis
ENCODING 168
SWIDTH 708 0
DWIDTH 7 0
BBX 3 2 2 8
BITMAP
5150
93A0
ENDCHAR
STARTCHAR copyright
ENCODING 169
SWIDTH 700 0
DWIDTH 7 0
BBX 7 7 0 0
BITMAP
039B9300
5D676D50
D4B2B4D0
F2C001F0
C5B875B0
3D767C20
01686100
ENDCHAR
STARTCHAR ordfeminine
ENCODING 170
SWIDTH 399 0
DWIDTH 4 0
BBX 5 5 0 3
BITMAP
7BB200
A5B700
E9D600
9BF910
002100
ENDCHAR
STARTCHAR guillemotleft
ENCODING 171
SWIDTH 424 0
DWIDTH 4 0
BBX 5 6 0 -1
BITMAP
072810
3D4C00
C8D600
6C7A00
0A2B10
010100
ENDCHAR
STARTCHAR logicalnot
ENCODING 172
SWIDTH 541 0
DWIDTH 5 0
BBX 6 6 0 0
BITMAP
200001
844353
CFFFF3
7222E2
1000C2
000144
ENDCHAR
STARTCHAR sfthyphen
ENCODING 173
SWIDTH 530 0
DWIDTH 5 0
BBX 6 3 0 2
BITMAP
543320
FFFFF4
655541
ENDCHAR
STARTCHAR registered
ENCODING 174
SWIDTH 700 0
DWIDTH 7 0
BBX 7 7 0 0
BITMAP
02798200
4E635D40
D58DD8D0
F13A01F0
C43C35C0
3D746D30
02797100
ENDCHAR
STARTCHAR macron
ENCODING 175
SWIDTH 705 0
DWIDTH 7 0
BBX 4 2 2 7
BITMAP
4882
5CC3
ENDCHAR
STARTCHAR degree
ENCODING 176
SWIDTH 364 0
DWIDTH 4 0
BBX 4 4 0 4
BITMAP
0100
4DC0
6AD1
0640
ENDCHAR
STARTCHAR plusminus
ENCODING 177
SWIDTH 607 0
DWIDTH 6 0
BBX 6 7 0 0
BITMAP
003400
00BC00
BFFFDA
79DD86
00AA00
7A9986
AEDDC9
ENDCHAR
STARTCHAR twosuperior
ENCODING 178
SWIDTH 440 0
DWIDTH 4 0
BBX 5 6 0 3
BITMAP
68B600
794F20
517E20
3C9630
DEBE20
334500
ENDCHAR
STARTCHAR threesuperior
ENCODING 179
SWIDTH 442 0
DWIDTH 4 0
BBX 5 6 0 3
BITMAP
547200
8B8E10
437E10
33AF20
997F20
568300
ENDCHAR
STARTCHAR acute
ENCODING 180
SWIDTH 694 0
DWIDTH 7 0
BBX 2 3 3 7
BITMAP
64
D7
70
ENDCHAR
STARTCHAR mu
ENCODING 181
SWIDTH 1000 0
DWIDTH 10 0
BBX 8 8 0 -3
BITMAP
4CE27BA0
07F00BB0
06E00B90
06E10D60
06FEDE92
06E11531
05E00000
03800000
ENDCHAR
STARTCHAR paragraph
ENCODING 182
SWIDTH 782 0
DWIDTH 8 0
BBX 9 8 -1 -1
BITMAP
0036788950
0BD7F9F300
1F60F4F000
03ACFCE000
0000F5E000
0000F5E000
0005FFFA30
0044432210
ENDCHAR
STARTCHAR periodcentered
ENCODING 183
SWIDTH 226 0
DWIDTH 2 0
BBX 3 2 0 3
BITMAP
5800
BE10
ENDCHAR
STARTCHAR cedilla
ENCODING 184
SWIDTH 780 0
DWIDTH 8 0
BBX 3 4 2 -2
BITMAP
0210
0D50
05D0
1B90
ENDCHAR
STARTCHAR onesuperior
ENCODING 185
SWIDTH 390 0
DWIDTH 4 0
BBX 4 6 0 3
BITMAP
1580
3AE0
06E0
05D0
06E0
2774
ENDCHAR
STARTCHAR ordmasculine
ENCODING 186
SWIDTH 449 0
DWIDTH 5 0
BBX 6 4 -1 4
BITMAP
038960
1E52D6
1F30C7
04AB70
ENDCHAR
STARTCHAR guillemotright
ENCODING 187
SWIDTH 415 0
DWIDTH 4 0
BBX 5 6 0 -1
BITMAP
808000
98A700
3F6F10
7B8A00
B1B100
101000
ENDCHAR
STARTCHAR onequarter
ENCODING 188
SWIDTH 918 0
DWIDTH 9 0
BBX 9 11 0 -2
BITMAP
1580001910
3AE0008E10
06E002F500
05D00BB000
06E05E2600
2775D74F00
0007C3EF20
002E4DCFA0
00A9357E80
03E103AD60
0020000000
ENDCHAR
STARTCHAR onehalf
ENCODING 189
SWIDTH 1007 0
DWIDTH 10 0
BBX 10 11 0 -2
BITMAP
1580001910
3AE0008E10
06E002F500
05D00BB000
06E05E2000
2775D779A2
0007C0C68D
002E3061AB
00A9005D78
03E102FDBC
0020014554
ENDCHAR
STARTCHAR threequarters
ENCODING 190
SWIDTH 936 0
DWIDTH 9 0
BBX 10 11 0 -2
BITMAP
5472000820
8B8E105F20
437E11E800
33AF28D000
997F5F4330
5683BA2E30
0005E2CF50
000D6BCFC0
007B255F90
01E2028D81
0020000000
ENDCHAR
STARTCHAR questiondown
ENCODING 191
SWIDTH 568 0
DWIDTH 6 0
BBX 6 9 0 -3
BITMAP
0005B3
0005D6
000750
014F80
7FCA50
FB0000
FA0004
6F9597
025684
ENDCHAR
STARTCHAR Agrave
ENCODING 192
SWIDTH 788 0
DWIDTH 8 0
BBX 12 14 -2 -3
BITMAP
000002000000
00004F200000
00000C600000
000001000000
000699500000
00004EE00000
00003EF60000
0000A4DD0000
0003E7BF6000
000B987ED000
018C0009F600
17898102FD72
00000009C851
000000110000
ENDCHAR
STARTCHAR Aacute
ENCODING 193
SWIDTH 788 0
DWIDTH 8 0
BBX 12 13 -2 -3
BITMAP
000003700000
000008B00000
000005300000
000699500000
00004EE00000
00003EF60000
0000A4DD0000
0003E7BF6000
000B987ED000
018C0009F600
17898102FD72
00000009C851
000000110000
ENDCHAR
STARTCHAR Acircumflex
ENCODING 194
SWIDTH 788 0
DWIDTH 8 0
BBX 12 13 -2 -3
BITMAP
000001100000
00000BA00000
000089A70000
0006A9510000
00004EE00000
00003EF60000
0000A4DD0000
0003E7BF6000
000B987ED000
018C0009F600
17898102FD72
00000009C851
000000110000
ENDCHAR
STARTCHAR Atilde
ENCODING 195
SWIDTH 788 0
DWIDTH 8 0
BBX 12 12 -2 -3
BITMAP
00004A750000
000057B50000
000699500000
00004EE00000
00003EF60000
0000A4DD0000
0003E7BF6000
000B987ED000
018C0009F600
17898102FD72
00000009C851
000000110000
ENDCHAR
STARTCHAR Adieresis
ENCODING 196
SWIDTH 788 0
DWIDTH 8 0
BBX 12 12 -2 -3
BITMAP
000023420000
000056740000
000699500000
00004EE00000
00003EF60000
0000A4DD0000
0003E7BF6000
000B987ED000
018C0009F600
17898102FD72
00000009C851
000000110000
ENDCHAR
STARTCHAR Aring
ENCODING 197
SWIDTH 788 0
DWIDTH 8 0
BBX 12 12 -2 -3
BITMAP
000004400000
00000CB00000
00069EA00000
00004ED00000
00003EF60000
0000A4DD0000
0003E7BF6000
000B987ED000
018C0009F600
17898102FD72
00000009C851
000000110000
ENDCHAR
STARTCHAR AE
ENCODING 198
SWIDTH 1019 0
DWIDTH 10 0
BBX 13 9 -3 -1
BITMAP
00000000012330
00008DEFFDCCC0
000006EDF012B0
00000B6CF07050
00005B0BF8B010
0001DA8DF9B050
0008976CE06280
028E116DE99B80
16787333333310
ENDCHAR
STARTCHAR Ccedilla
ENCODING 199
SWIDTH 766 0
DWIDTH 8 0
BBX 8 12 0 -4
BITMAP
00000001
018BC946
1DE748F4
9F600091
CF200010
AF300010
5F900080
09FB7AD3
003D8502
002C9000
0027D000
00063000
ENDCHAR
STARTCHAR Egrave
ENCODING 200
SWIDTH 781 0
DWIDTH 8 0
BBX 9 12 -1 -1
BITMAP
0000200000
0001E50000
0000990000
0000101210
39CDDCBE60
008F501850
007F553240
006FAD3010
006FAD3320
005F442920
03BFB9AE20
1333333300
ENDCHAR
STARTCHAR Eacute
ENCODING 201
SWIDTH 781 0
DWIDTH 8 0
BBX 9 11 -1 -1
BITMAP
0000181000
00005E1000
0000351210
39CDDCBE60
008F501850
007F553240
006FAD3010
006FAD3320
005F442920
03BFB9AE20
1333333300
ENDCHAR
STARTCHAR Ecircumflex
ENCODING 202
SWIDTH 781 0
DWIDTH 8 0
BBX 9 12 -1 -1
BITMAP
0000100000
0001D80000
000A8C4000
0001002210
39CDDCBE60
008F501850
007F553240
006FAD3010
006FAD3320
005F442920
03BFB9AE20
1333333300
ENDCHAR
STARTCHAR Edieresis
ENCODING 203
SWIDTH 781 0
DWIDTH 8 0
BBX 9 11 -1 -1
BITMAP
0002342000
0005674000
0000001210
39CDDCBE60
008F501850
007F553240
006FAD3010
006FAD3320
005F442920
03BFB9AE20
1333333300
ENDCHAR
STARTCHAR Igrave
ENCODING 204
SWIDTH 445 0
DWIDTH 4 0
BBX 6 12 -1 -1
BITMAP
000200
00B900
005D00
000100
29DDB5
008F40
007F30
007F30
006F20
006F20
005F20
16CDA5
ENDCHAR
STARTCHAR Iacute
ENCODING 205
SWIDTH 445 0
DWIDTH 4 0
BBX 6 11 -1 -1
BITMAP
000640
000E50
001700
29DDB5
008F40
007F30
007F30
006F20
006F20
005F20
16CDA5
ENDCHAR
STARTCHAR Icircumflex
ENCODING 206
SWIDTH 445 0
DWIDTH 4 0
BBX 6 12 -1 -1
BITMAP
000200
005E20
02C7C0
000010
29DDB5
008F40
007F30
007F30
006F20
006F20
005F20
16CDA5
ENDCHAR
STARTCHAR Idieresis
ENCODING 207
SWIDTH 445 0
DWIDTH 4 0
BBX 6 10 -1 -1
BITMAP
005140
01A380
29DDB5
008F40
007F30
007F30
006F20
006F20
005F20
16CDA5
ENDCHAR
STARTCHAR Eth
ENCODING 208
SWIDTH 1000 0
DWIDTH 10 0
BBX 10 8 0 -1
BITMAP
39AAAA8400
007FD47EA0
002FB006F6
0CCFEA33F9
077FC613F7
000E900AE2
017FECEC40
0343220000
ENDCHAR
STARTCHAR Ntilde
ENCODING 209
SWIDTH 840 0
DWIDTH 8 0
BBX 11 11 -1 -1
BITMAP
0002A7700000
00047B800000
111103334410
18EFA28EB300
007FF7095000
007AEF495000
00784FEB5000
007806FF4000
007A008F4000
3AEEC71A4000
000000001000
ENDCHAR
STARTCHAR Ograve
ENCODING 210
SWIDTH 808 0
DWIDTH 8 0
BBX 8 11 0 -1
BITMAP
00002000
000AB000
0003E100
00012000
06DEDE70
6F9008F7
BF2001FD
BF2001FC
5F9008F5
05DEED50
00011000
ENDCHAR
STARTCHAR Oacute
ENCODING 211
SWIDTH 808 0
DWIDTH 8 0
BBX 8 10 0 -1
BITMAP
00008200
0004E100
00047000
06DEDE70
6F9008F7
BF2001FD
BF2001FC
5F9008F5
05DEED50
00011000
ENDCHAR
STARTCHAR Ocircumflex
ENCODING 212
SWIDTH 808 0
DWIDTH 8 0
BBX 8 11 0 -1
BITMAP
00011000
000AB000
006A9800
00112100
06DEDE70
6F9008F7
BF2001FD
BF2001FC
5F9008F5
05DEED50
00011000
ENDCHAR
STARTCHAR Otilde
ENCODING 213
SWIDTH 808 0
DWIDTH 8 0
BBX 8 10 0 -1
BITMAP
002A7700
0047B800
00012000
06DEDE70
6F9008F7
BF2001FD
BF2001FC
5F9008F5
05DEED50
00011000
ENDCHAR
STARTCHAR Odieresis
ENCODING 214
SWIDTH 808 0
DWIDTH 8 0
BBX 8 10 0 -1
BITMAP
00243200
00476500
00012000
06DEDE70
6F9008F7
BF2001FD
BF2001FC
5F9008F5
05DEED50
00011000
ENDCHAR
STARTCHAR multiply
ENCODING 215
SWIDTH 556 0
DWIDTH 6 0
BBX 6 6 0 0
BITMAP
5C14B1
6FCEE3
08FF30
2EDFA0
9C14E3
010010
ENDCHAR
STARTCHAR Oslash
ENCODING 216
SWIDTH 808 0
DWIDTH 8 0
BBX 8 9 0 -1
BITMAP
00000100
00012BB0
06DEEFB0
6FA1CEF7
BF26F3FC
BF3E81FC
5FDD18F5
07FEED50
07A11000
ENDCHAR
STARTCHAR Ugrave
ENCODING 217
SWIDTH 725 0
DWIDTH 7 0
BBX 9 11 -1 -1
BITMAP
0000200000
0003F30000
0000B70000
2543338850
05FC207B00
03FA005A00
03F9005900
03F9004900
01FD008600
007FDCB000
0001320000
ENDCHAR
STARTCHAR Uacute
ENCODING 218
SWIDTH 725 0
DWIDTH 7 0
BBX 9 11 -1 -1
BITMAP
0000550000
0000B80000
0000710000
2543238850
05FC207B00
03FA005A00
03F9005900
03F9004900
01FD008600
007FDCB000
0001320000
ENDCHAR
STARTCHAR Ucircumflex
ENCODING 219
SWIDTH 725 0
DWIDTH 7 0
BBX 9 11 -1 -1
BITMAP
0000100000
0001D80000
000A8C4000
2543249850
05FC207B00
03FA005A00
03F9005900
03F9004900
01FD008600
007FDCB000
0001320000
ENDCHAR
STARTCHAR Udieresis
ENCODING 220
SWIDTH 725 0
DWIDTH 7 0
BBX 9 10 -1 -1
BITMAP
0002342000
0005674000
2543238850
05FC207B00
03FA005A00
03F9005900
03F9004900
01FD008600
007FDCB000
0001320000
ENDCHAR
STARTCHAR Yacute
ENCODING 221
SWIDTH 848 0
DWIDTH 8 0
BBX 10 11 -1 -1
BITMAP
0000037000
000008B000
0000053000
4567500000
16DF306CB5
002ED14A10
0003ECB100
00006F2000
00005F3000
00006F5000
0005AAA720
ENDCHAR
STARTCHAR Thorn
ENCODING 222
SWIDTH 745 0
DWIDTH 7 0
BBX 9 8 -1 -1
BITMAP
3655530000
03CF710000
009FDDC700
008F002E70
008F56AC20
008F963000
04DFA30000
1544441000
ENDCHAR
STARTCHAR germandbls
ENCODING 223
SWIDTH 986 0
DWIDTH 10 0
BBX 11 14 -1 -4
BITMAP
000023100000
0007EAD40000
002F304E1000
006E001F3000
007F004F1000
0BEF10CA0000
005F34F30000
003F54F91000
001F708FE920
000E91639FD0
000CA2F95CB0
380BA3468610
6E0D70000000
0ADA10000000
ENDCHAR
STARTCHAR agrave
ENCODING 224
SWIDTH 572 0
DWIDTH 6 0
BBX 6 10 0 -1
BITMAP
000200
003F30
000B70
038820
4E49D1
5B03F3
5DABF3
BD17F1
39BDF5
000232
ENDCHAR
STARTCHAR aacute
ENCODING 225
SWIDTH 572 0
DWIDTH 6 0
BBX 6 10 0 -1
BITMAP
000730
001F40
001700
038720
4E49D1
5B03F3
5DABF3
BD17F1
39BDF5
000232
ENDCHAR
STARTCHAR acircumflex
ENCODING 226
SWIDTH 572 0
DWIDTH 6 0
BBX 6 11 0 -1
BITMAP
000200
007E10
03C8B0
000010
038720
4E49D1
5B03F3
5DABF3
BD17F1
39BDF5
000232
ENDCHAR
STARTCHAR atilde
ENCODING 227
SWIDTH 572 0
DWIDTH 6 0
BBX 6 9 0 -1
BITMAP
01A870
028A90
038720
4E49D1
5B03F3
5DABF3
BD17F1
39BDF5
000232
ENDCHAR
STARTCHAR adieresis
ENCODING 228
SWIDTH 572 0
DWIDTH 6 0
BBX 6 9 0 -1
BITMAP
024320
037650
038720
4E49D1
5B03F3
5DABF3
BD17F1
39BDF5
000232
ENDCHAR
STARTCHAR aring
ENCODING 229
SWIDTH 572 0
DWIDTH 6 0
BBX 6 9 0 -1
BITMAP
002600
00A940
03BE30
4E49E1
5B03F3
5DABF3
BD17F1
39BDF5
000232
ENDCHAR
STARTCHAR ae
ENCODING 230
SWIDTH 1022 0
DWIDTH 10 0
BBX 11 7 0 -1
BITMAP
048610120000
7D4BB8EBE400
7906FF619E00
7DACFFBAAA10
EA1AEDB56400
4ABEE5684000
000322000000
ENDCHAR
STARTCHAR ccedilla
ENCODING 231
SWIDTH 589 0
DWIDTH 6 0
BBX 6 9 0 -4
BITMAP
05CDA1
4F60F9
9F0053
9F2004
3ED8B6
02BA40
00AC10
007B30
004500
ENDCHAR
STARTCHAR egrave
ENCODING 232
SWIDTH 593 0
DWIDTH 6 0
BBX 6 10 0 -1
BITMAP
000200
004F20
000C60
000100
027840
2E98F4
9F54CB
9F9886
3F9572
028830
ENDCHAR
STARTCHAR eacute
ENCODING 233
SWIDTH 593 0
DWIDTH 6 0
BBX 6 9 0 -1
BITMAP
000820
002F20
002600
027840
2E98F4
9F54CB
9F9886
3F9572
028830
ENDCHAR
STARTCHAR ecircumflex
ENCODING 234
SWIDTH 593 0
DWIDTH 6 0
BBX 6 10 0 -1
BITMAP
000200
007E10
03C8B0
000010
027840
2E98F4
9F54CB
9F9886
3F9572
028830
ENDCHAR
STARTCHAR edieresis
ENCODING 235
SWIDTH 593 0
DWIDTH 6 0
BBX 6 8 0 -1
BITMAP
005140
01A380
027840
2E98F4
9F54CB
9F9886
3F9572
028830
ENDCHAR
STARTCHAR igrave
ENCODING 236
SWIDTH 393 0
DWIDTH 4 0
BBX 5 9 0 0
BITMAP
002000
0B9000
05D000
334100
3BF300
06F200
05F100
05F000
4DF910
ENDCHAR
STARTCHAR iacute
ENCODING 237
SWIDTH 393 0
DWIDTH 4 0
BBX 5 9 0 0
BITMAP
007300
01F400
017000
333100
3BF300
06F200
05F100
05F000
4DF910
ENDCHAR
STARTCHAR icircumflex
ENCODING 238
SWIDTH 393 0
DWIDTH 4 0
BBX 5 9 0 0
BITMAP
002000
07E100
3C8B00
333100
3BF300
06F200
05F100
05F000
4DF910
ENDCHAR
STARTCHAR idieresis
ENCODING 239
SWIDTH 393 0
DWIDTH 4 0
BBX 5 8 0 0
BITMAP
051500
0A3900
333100
3BF300
06F200
05F100
05F000
4DF910
ENDCHAR
STARTCHAR eth
ENCODING 240
SWIDTH 672 0
DWIDTH 7 0
BBX 8 9 -1 -1
BITMAP
003713B1
0002EE50
003EBE40
000508E1
018CCDF7
0CD205FA
1F8000EA
0CC104F5
019CCC50
ENDCHAR
STARTCHAR ntilde
ENCODING 241
SWIDTH 643 0
DWIDTH 6 0
BBX 8 8 -1 0
BITMAP
00099720
00089B10
01452410
49EFDED0
00BC04F2
009903F2
04BB34F1
00003665
ENDCHAR
STARTCHAR ograve
ENCODING 242
SWIDTH 705 0
DWIDTH 7 0
BBX 7 10 0 -1
BITMAP
00020000
001E5000
00099000
00010000
05ABA500
8F614F80
DB000BE0
AE101DB0
19DBD910
00010000
ENDCHAR
STARTCHAR oacute
ENCODING 243
SWIDTH 705 0
DWIDTH 7 0
BBX 7 9 0 -1
BITMAP
00064000
000D7000
00070000
05ABA500
8F614F80
DB000BE0
AE101DB0
19DBD910
00010000
ENDCHAR
STARTCHAR ocircumflex
ENCODING 244
SWIDTH 705 0
DWIDTH 7 0
BBX 7 10 0 -1
BITMAP
00020000
002E6000
00B8C300
00100000
05ABA500
8F614F80
DB000BE0
AE101DB0
19DBD910
00010000
ENDCHAR
STARTCHAR otilde
ENCODING 245
SWIDTH 705 0
DWIDTH 7 0
BBX 7 9 0 -1
BITMAP
007A7300
0078C200
00000000
05ABA500
8F614F80
DB000BE0
AE101DB0
19DBD910
00010000
ENDCHAR
STARTCHAR odieresis
ENCODING 246
SWIDTH 705 0
DWIDTH 7 0
BBX 7 8 0 -1
BITMAP
00425100
00749200
05ABA500
8F614F80
DB000BE0
AE101DB0
19DBD910
00010000
ENDCHAR
STARTCHAR divide
ENCODING 247
SWIDTH 504 0
DWIDTH 5 0
BBX 5 7 0 -1
BITMAP
02A400
03E800
887650
CDCCB0
028300
05F700
001000
ENDCHAR
STARTCHAR oslash
ENCODING 248
SWIDTH 705 0
DWIDTH 7 0
BBX 7 8 0 -2
BITMAP
00004C10
05ABEC00
8F67EE80
DB1E7BE0
AEAC1DB0
1BFDD910
0A910000
01100000
ENDCHAR
STARTCHAR ugrave
ENCODING 249
SWIDTH 614 0
DWIDTH 6 0
BBX 8 10 -1 -1
BITMAP
00011000
000D8000
0006C000
00001000
4CE36BB0
06F209C0
06F10AA0
04F20C80
00BEDEA3
00011441
ENDCHAR
STARTCHAR uacute
ENCODING 250
SWIDTH 614 0
DWIDTH 6 0
BBX 8 9 -1 -1
BITMAP
00008200
0004E100
00035000
4CE36BB0
06F209C0
06F10AA0
04F20C80
00BEDEA3
00011441
ENDCHAR
STARTCHAR ucircumflex
ENCODING 251
SWIDTH 614 0
DWIDTH 6 0
BBX 8 10 -1 -1
BITMAP
00001000
0008D100
005B8A00
00000100
4CE36BB0
06F209C0
06F10AA0
04F20C80
00BEDEA3
00011441
ENDCHAR
STARTCHAR udieresis
ENCODING 252
SWIDTH 614 0
DWIDTH 6 0
BBX 8 9 -1 -1
BITMAP
00243200
00376500
00000000
4CE36BB0
06F209C0
06F10AA0
04F20C80
00BEDEA3
00011441
ENDCHAR
STARTCHAR yacute
ENCODING 253
SWIDTH 655 0
DWIDTH 7 0
BBX 8 14 -1 -5
BITMAP
00008200
0004E100
00035000
21000000
0AB57CA2
05F708F3
09F307F2
07F83AF2
018CBCF1
000008F0
012009E0
08D00DB0
04D7AE30
00276200
ENDCHAR
STARTCHAR thorn
ENCODING 254
SWIDTH 734 0
DWIDTH 7 0
BBX 9 12 -1 -5
BITMAP
3ADD100000
00AF100000
008F100000
008F332000
008FB9EA00
007F103F50
007F103F50
006FB9DB00
006F453000
005F200000
05CFB40000
1210000000
ENDCHAR
STARTCHAR ydieresis
ENCODING 255
SWIDTH 655 0
DWIDTH 7 0
BBX 8 13 -1 -5
BITMAP
00243200
00376500
21000000
0AB57CA2
05F708F3
09F307F2
07F83AF2
018CBCF1
000008F0
012009E0
08D00DB0
04D7AE30
00276200
ENDCHAR
STARTCHAR dotlessi
ENCODING 305
SWIDTH 393 0
DWIDTH 4 0
BBX 5 6 0 0
BITMAP
333100
3BF300
06F200
05F100
05F000
4DF910
ENDCHAR
STARTCHAR Lslash
ENCODING 321
SWIDTH 713 0
DWIDTH 7 0
BBX 9 8 -1 0
BITMAP
28CDC71000
007F700000
006FA60000
008FFA0000
0BFF600510
035F500B10
004F734F10
17CCBBA900
ENDCHAR
STARTCHAR lslash
ENCODING 322
SWIDTH 365 0
DWIDTH 4 0
BBX 6 10 -1 -1
BITMAP
488700
02FC00
00EC00
00DDA1
17EE81
4EEA00
01BA00
00A900
00BA00
07AA60
ENDCHAR
STARTCHAR OE
ENCODING 338
SWIDTH 1195 0
DWIDTH 12 0
BBX 12 9 0 -1
BITMAP
000000000122
00017BDEDCD8
038974FC0157
6F73BEFB1705
DB002FFDA801
CB002FFDB714
5F74BCFA1554
027888FD99D5
000033333331
ENDCHAR
STARTCHAR oe
ENCODING 339
SWIDTH 1087 0
DWIDTH 11 0
BBX 11 6 0 -1
BITMAP
037850155100
6E64CCFABD20
D9004FC33E90
BB007FDA9970
2BCBCBE65720
000100598200
ENDCHAR
STARTCHAR Scaron
ENCODING 352
SWIDTH 661 0
DWIDTH 7 0
BBX 7 12 0 -1
BITMAP
00102000
02D9B000
004D2000
00010000
04774240
8E65BF40
DE510820
7FFFB400
127BFF40
55007F70
6CB9DB10
40242000
ENDCHAR
STARTCHAR scaron
ENCODING 353
SWIDTH 533 0
DWIDTH 5 0
BBX 6 11 0 -1
BITMAP
020010
08AC50
00B800
001000
2AC960
AA15E0
8FB640
27DFD1
9706F4
9ADD90
100000
ENDCHAR
STARTCHAR Ydieresis
ENCODING 376
SWIDTH 848 0
DWIDTH 8 0
BBX 10 10 -1 -1
BITMAP
0000515000
000093A000
4567500000
16DF306CB5
002ED14A10
0003ECB100
00006F2000
00005F3000
00006F5000
0005AAA720
ENDCHAR
STARTCHAR Zcaron
ENCODING 381
SWIDTH 685 0
DWIDTH 7 0
BBX 7 10 0 0
BITMAP
00201100
00B9D200
001D5000
00011120
AEEDFFB0
7504FD10
333EE310
02DF5070
0CFA15A0
7CCCCD70
ENDCHAR
STARTCHAR zcaron
ENCODING 382
SWIDTH 549 0
DWIDTH 6 0
BBX 6 10 0 -1
BITMAP
010010
07BC60
00A900
123333
BCBEF5
834F90
32ED12
1CF374
8EEDE5
000121
ENDCHAR
STARTCHAR circumflex
ENCODING 710
SWIDTH 714 0
DWIDTH 7 0
BBX 4 4 2 6
BITMAP
0110
0BA0
89A7
1001
ENDCHAR
STARTCHAR caron
ENCODING 711
SWIDTH 714 0
DWIDTH 7 0
BBX 4 3 2 7
BITMAP
1001
7BC6
0A90
ENDCHAR
STARTCHAR breve
ENCODING 728
SWIDTH 715 0
DWIDTH 7 0
BBX 4 3 2 7
BITMAP
2002
6CC5
0760
ENDCHAR
STARTCHAR dotaccent
ENCODING 729
SWIDTH 708 0
DWIDTH 7 0
BBX 2 2 3 8
BITMAP
50
A1
ENDCHAR
STARTCHAR ring
ENCODING 730
SWIDTH 704 0
DWIDTH 7 0
BBX 3 3 2 7
BITMAP
0210
1BB0
0A80
ENDCHAR
STARTCHAR ogonek
ENCODING 731
SWIDTH 988 0
DWIDTH 10 0
BBX 4 4 3 -2
BITMAP
2100
B400
AEB6
0310
ENDCHAR
STARTCHAR tilde
ENCODING 732
SWIDTH 707 0
DWIDTH 7 0
BBX 4 2 2 7
BITMAP
5A65
68C4
ENDCHAR
STARTCHAR hungarumlaut
ENCODING 733
SWIDTH 671 0
DWIDTH 7 0
BBX 4 3 2 7
BITMAP
5582
CBF2
7360
ENDCHAR
STARTCHAR endash
ENCODING 8211
SWIDTH 576 0
DWIDTH 6 0
BBX 6 2 0 3
BITMAP
266771
6EEFF2
ENDCHAR
STARTCHAR emdash
ENCODING 8212
SWIDTH 993 0
DWIDTH 10 0
BBX 10 3 0 2
BITMAP
2455555562
6FFFFFFFF5
0001111221
ENDCHAR
STARTCHAR quoteleft
ENCODING 8216
SWIDTH 261 0
DWIDTH 3 0
BBX 3 4 0 4
BITMAP
0100
1E50
9F20
4800
ENDCHAR
STARTCHAR quoteright
ENCODING 8217
SWIDTH 301 0
DWIDTH 3 0
BBX 3 4 0 4
BITMAP
0100
2F60
7F20
4700
ENDCHAR
STARTCHAR quotesinglbase
ENCODING 8218
SWIDTH 332 0
DWIDTH 3 0
BBX 3 4 0 -1
BITMAP
0100
2F60
7F20
4700
ENDCHAR
STARTCHAR quotedblleft
ENCODING 8220
SWIDTH 477 0
DWIDTH 5 0
BBX 5 4 0 4
BITMAP
010100
1E5D70
9F8F40
483900
ENDCHAR
STARTCHAR quotedblright
ENCODING 8221
SWIDTH 477 0
DWIDTH 5 0
BBX 5 4 0 4
BITMAP
010100
5E6F60
AE8F20
655700
ENDCHAR
STARTCHAR quotedblbase
ENCODING 8222
SWIDTH 477 0
DWIDTH 5 0
BBX 5 4 0 -1
BITMAP
010100
5E6F60
AE8F20
655700
ENDCHAR
STARTCHAR dagger
ENCODING 8224
SWIDTH 487 0
DWIDTH 5 0
BBX 5 12 0 -3
BITMAP
015200
04F500
04F500
BEFD70
7AF940
03F400
03F400
02F300
02F300
02F200
01F200
01E200
ENDCHAR
STARTCHAR daggerdbl
ENCODING 8225
SWIDTH 497 0
DWIDTH 5 0
BBX 5 12 0 -3
BITMAP
015200
04F500
04F500
BEFD70
7AF940
48FA50
AEFFA0
02F300
02F300
02F300
01F200
01E200
ENDCHAR
STARTCHAR bullet
ENCODING 8226
SWIDTH 275 0
DWIDTH 3 0
BBX 3 4 0 2
BITMAP
0200
BF70
EFA0
3820
ENDCHAR
STARTCHAR ellipsis
ENCODING 8230
SWIDTH 787 0
DWIDTH 8 0
BBX 8 2 0 -1
BITMAP
8B1A92B6
9C1BA2C7
ENDCHAR
STARTCHAR perthousand
ENCODING 8240
SWIDTH 888 0
DWIDTH 9 0
BBX 10 9 0 -1
BITMAP
1410950000
D9D3F40000
D9D9D00000
252E600000
006E100000
00C8683860
03F5D8F8D3
09A1DDADD1
0320000100
ENDCHAR
STARTCHAR guilsinglleft
ENCODING 8249
SWIDTH 234 0
DWIDTH 2 0
BBX 3 6 0 -1
BITMAP
0720
3D00
C800
6C00
0A20
0100
ENDCHAR
STARTCHAR guilsinglright
ENCODING 8250
SWIDTH 223 0
DWIDTH 2 0
BBX 3 6 0 -1
BITMAP
8000
9800
3F20
7B00
B100
1000
ENDCHAR
STARTCHAR fraction
ENCODING 8260
SWIDTH 600 0
DWIDTH 6 0
BBX 8 11 -1 -2
BITMAP
00000110
00000AD2
00004FB0
0000CF20
0006F800
001ED000
009F4000
03FA0000
0BE10000
2E600000
01000000
ENDCHAR
STARTCHAR Euro
ENCODING 8364
SWIDTH 590 0
DWIDTH 6 0
BBX 7 7 -1 0
BITMAP
00047500
008D5C90
16F83690
2BFA8000
3AFEC440
00AF9970
00058500
ENDCHAR
STARTCHAR trademark
ENCODING 8482
SWIDTH 624 0
DWIDTH 6 0
BBX 7 5 0 3
BITMAP
02000000
87000000
96664400
9265A900
78447610
ENDCHAR
STARTCHAR minus
ENCODING 8722
SWIDTH 549 0
DWIDTH 6 0
BBX 6 3 0 2
BITMAP
444321
DFFFF6
565541
ENDCHAR
STARTCHAR fi
ENCODING 64257
SWIDTH 757 0
DWIDTH 8 0
BBX 9 14 -1 -4
BITMAP
0002884000
001D76F600
007E01EC00
009D01DA00
008E011100
0BEFDDFD00
005F30CC00
003F50BB00
001F70A900
000E97EE60
000CA00000
370BA00000
6E0D700000
1ADA100000
ENDCHAR
STARTCHAR fl
ENCODING 64258
SWIDTH 776 0
DWIDTH 8 0
BBX 9 14 -1 -4
BITMAP
0002894000
001E76F500
006E00CC00
009D00BE00
008E00AE00
0BEFD99E00
005F309D00
003F508D00
001F708C00
000E908C00
000CA5BA70
370BA00000
6E0D700000
1ADA100000
ENDCHAR
STARTCHAR .notdef
ENCODING -1
SWIDTH 320 0
DWIDTH 3 0
BBX 1 1 0 0
BITMAP
00
ENDCHAR
ENDFONT
